<svg width="200" height="200" viewBox="0 0 200 200" fill="none" xmlns="http://www.w3.org/2000/svg">
  <!-- Outer Sacred Geometry / Circle -->
  <circle cx="100" cy="100" r="98" stroke="url(#gold_grad)" stroke-width="0.5" opacity="0.5"/>
  <circle cx="100" cy="100" r="90" stroke="url(#gold_grad)" stroke-width="1"/>
  
  <!-- Stylized Leaf Structure -->
  <path d="M100 40C100 40 140 80 140 120C140 142.091 122.091 160 100 160C77.9086 160 60 142.091 60 120C60 80 100 40 100 40Z" fill="url(#emerald_grad)" fill-opacity="0.9"/>
  
  <!-- Central Vein / Wisdom Line -->
  <path d="M100 40V160" stroke="url(#gold_grad)" stroke-width="2" stroke-linecap="round"/>
  
  <!-- Abstract 'JGM' Accents -->
  <path d="M75 110C75 110 85 105 100 105" stroke="white" stroke-width="1.5" stroke-linecap="round" opacity="0.6"/>
  <path d="M125 130C125 130 115 135 100 135" stroke="white" stroke-width="1.5" stroke-linecap="round" opacity="0.6"/>
  
  <!-- Petal details -->
  <path d="M100 60C115 80 130 100 130 120" stroke="rgba(255,255,255,0.2)" stroke-width="1"/>
  <path d="M100 60C85 80 70 100 70 120" stroke="rgba(255,255,255,0.2)" stroke-width="1"/>

  <defs>
    <linearGradient id="gold_grad" x1="60" y1="40" x2="140" y2="160" gradientUnits="userSpaceOnUse">
      <stop stop-color="#C9A84C"/>
      <stop offset="0.5" stop-color="#F2E3A0"/>
      <stop offset="1" stop-color="#B89E5F"/>
    </linearGradient>
    <linearGradient id="emerald_grad" x1="100" y1="40" x2="100" y2="160" gradientUnits="userSpaceOnUse">
      <stop stop-color="#042B20"/>
      <stop offset="1" stop-color="#0A533E"/>
    </linearGradient>
  </defs>
</svg>
